<svg width="20" height="20" viewBox="0 0 20 20" fill="none" xmlns="http://www.w3.org/2000/svg">
<path d="M9.99994 10.7377C6.97321 10.7377 4.51085 8.3292 4.51085 5.36884C4.51085 2.40848 6.97321 0 9.99994 0C13.0267 0 15.489 2.40848 15.489 5.36884C15.489 8.3292 13.0267 10.7377 9.99994 10.7377ZM9.99994 1.24999C7.66245 1.24999 5.76084 3.09773 5.76084 5.36884C5.76084 7.63995 7.66245 9.48769 9.99994 9.48769C12.3374 9.48769 14.239 7.63995 14.239 5.36884C14.239 3.09773 12.3374 1.24999 9.99994 1.24999ZM18.5845 19.8334H1.41537C1.04476 19.8348 0.688268 19.6914 0.421872 19.4338C0.149624 19.1705 -0.000124921 18.8189 7.81916e-08 18.4436C0.000375076 17.8741 0.000875073 17.7328 0.00187507 17.6859C0.0293749 16.2739 0.497497 14.2563 2.57173 12.664C3.8716 11.6657 5.67384 11.4263 7.27558 12.0397C7.71827 12.2108 8.17053 12.356 8.63007 12.4747C9.52456 12.7081 10.4638 12.7094 11.3589 12.4783C11.8221 12.3578 12.2782 12.2115 12.725 12.04C14.3267 11.4246 16.1286 11.6638 17.4288 12.6643C19.5024 14.2562 19.9705 16.2738 19.9981 17.6858C19.9991 17.7326 19.9996 17.874 20 18.4435C20.0002 18.8186 19.8505 19.1701 19.5781 19.4335C19.3118 19.6913 18.9552 19.8348 18.5845 19.8334ZM1.25137 17.7173C1.25062 17.774 1.25024 18.108 1.24999 18.4444C1.24999 18.4868 1.27212 18.5171 1.29074 18.5351C1.30937 18.5533 1.35024 18.5834 1.41537 18.5834H18.5845C18.6496 18.5834 18.6905 18.5533 18.7091 18.5351C18.7278 18.5171 18.75 18.4868 18.7499 18.4445C18.75 18.2021 18.7495 17.9597 18.7485 17.7173L18.7484 17.7103C18.7263 16.5723 18.3471 14.9453 16.6671 13.6555C15.7093 12.9185 14.371 12.7468 13.1742 13.2067C12.6833 13.3952 12.1823 13.5559 11.6734 13.6883C10.5718 13.9728 9.41579 13.9714 8.31482 13.6844C7.80948 13.5538 7.31215 13.394 6.82533 13.2058C5.62996 12.7483 4.29047 12.9199 3.3331 13.6555C1.65299 14.9454 1.27387 16.5725 1.25174 17.7104C1.25149 17.7126 1.25149 17.7149 1.25137 17.7173Z" fill="white"/>
</svg>
